<?xml version="1.0" encoding="utf-8"?>
<!-- Generator: Adobe Illustrator 24.3.0, SVG Export Plug-In . SVG Version: 6.00 Build 0)  -->
<svg version="1.1" id="Layer_1" xmlns="http://www.w3.org/2000/svg" xmlns:xlink="http://www.w3.org/1999/xlink" x="0px" y="0px"
	 viewBox="0 0 1414.94 1003.07" style="enable-background:new 0 0 1414.94 1003.07;" xml:space="preserve">
<style type="text/css">
	.st0{fill:#FFFFFF;}
	.st1{fill:#F5E22C;}
</style>
<g>
	<path class="st0" d="M348.81,723.31l86.55,163.02h-314.6C54.06,886.34,0,832.27,0,765.58V210.46C0,143.76,54.06,89.7,120.76,89.7
		h414.76L653.43,0L400.67,431.7l-100.3-172.68H188.12l160.72,280.97v183.32H348.81z"/>
	<path class="st1" d="M1414.94,210.46v555.12c0,66.69-54.06,120.76-120.72,120.76h-693.3v116.73L452.33,723.31h0.13V539.99
		L713.45,89.7h580.76C1360.87,89.7,1414.94,143.76,1414.94,210.46z"/>
	<g>
		<path class="st0" d="M796.34,723.31v-71.07l243.11-303.55H804.31v-89.67h376.62v71.74L938.48,632.97h246.43v90.34H796.34z"/>
	</g>
</g>
</svg>
